<svg width="77" height="90" viewBox="0 0 77 90" fill="none" xmlns="http://www.w3.org/2000/svg">
<path d="M13.3913 71.2539V71.0104H12.9044V70.5235H12.6609V67.8454H12.9044V64.9238H13.1478V62.0022H13.3913V59.0806H13.6348V56.4025H13.8782V53.4809H14.1217V50.5593H14.3652V47.6377H14.6086V44.7161H14.8521V42.038H15.0956V39.1164H15.339V36.1949H15.5825V33.2733H15.826V30.5951H16.0694V27.6736H16.3129V24.752H16.5564V21.8304H16.7998V19.1523H17.0433V18.6653H17.2868V18.4219H17.7737V18.1784H58.6759V18.4219H58.9194V18.6653H59.1628V18.9088H59.4063V20.6131H59.6498V23.5346H59.8932V26.4562H60.1367V29.1344H60.3802V32.0559H60.6236V34.9775H60.8671V37.8991H61.1105V40.8207H61.354V43.4988H61.5975V46.4204H61.8409V49.342H62.0844V52.2636H62.3279V54.9417H62.5713V57.8633H62.8148V60.7849H63.0583V63.7064H63.3017V66.3846H63.5452V69.3062H63.7887V70.0365H63.5452V70.7669H63.3017V71.0104H63.0583V71.2539H13.3913ZM26.5385 26.9432V27.1866H26.7819V26.9432H27.5123V26.6997H27.7558V26.4562H27.9992V26.2128H28.2427V25.9693H28.4862V24.752H28.2427V24.265H27.9992V24.0216H27.7558V23.7781H27.5123V23.5346H26.7819V23.2912H26.5385V23.5346H25.8081V23.7781H25.5646V24.0216H25.3211V24.265H25.0777V24.5085H24.8342V25.9693H25.0777V26.2128H25.3211V26.4562H25.5646V26.6997H25.8081V26.9432H26.5385ZM49.4242 26.9432V27.1866H49.9111V26.9432H50.3981V26.6997H50.885V26.4562H51.1285V25.9693H51.3719V25.4824H51.6154V24.9954H51.3719V24.5085H51.1285V24.0216H50.885V23.7781H50.3981V23.5346H49.9111V23.2912H49.4242V23.5346H48.9373V23.7781H48.4503V24.0216H48.2069V24.5085H47.9634V24.9954H47.7199V25.4824H47.9634V25.9693H48.2069V26.4562H48.4503V26.6997H48.9373V26.9432" fill="url(#paint0_linear_15_138)"/>
<path d="M13.3913 71.2539V71.0104H12.9044V70.5235H12.6609V67.8454H12.9044V64.9238H13.1478V62.0022H13.3913V59.0806H13.6348V56.4025H13.8782V53.4809H14.1217V50.5593H14.3652V47.6377H14.6086V44.7161H14.8521V42.038H15.0956V39.6034H19.478V39.3599H22.1561V39.1164H23.6169V38.873H25.3211V38.6295H27.0254V38.386H28.2427V38.1426H29.2166V37.8991H30.1904V37.6556H31.1643V37.4122H32.3816V37.1687H33.112V36.9252H33.8424V36.6818H34.5728V36.4383H35.5467V36.1948H36.2771V35.9514H37.0075V35.7079H37.7379V35.4645H38.4683V35.221H38.9552V34.9775H39.6856V34.7341H40.1725V34.4906H40.6594V34.2471H41.3898V34.0037H41.8768V33.7602H42.3637V33.5167H42.8506V33.2733H43.581V33.0298H44.068V32.7863H44.5549V32.5429H45.0418V32.2994H45.5288V32.0559H46.0157V31.8125H46.2592V31.569H46.7461V31.3255H47.233V31.0821H47.7199V30.8386H48.2069V30.5951H48.6938V30.3517H49.1807V30.1082H49.4242V29.8647H49.9111V29.6213H50.1546V29.3778H50.6415V29.1343H50.885V28.8909H51.3719V28.6474H51.8589V28.404H52.1023V28.1605H52.5893V27.917H52.8327V27.6736H53.3197V27.4301H53.5631V27.1866H54.0501V26.9432H54.2935V26.6997H54.7804V26.4562H55.0239V26.2128H55.2674V25.9693H55.5108V25.7258H55.9978V25.4824H56.2412V25.2389H56.4847V24.9954H56.9716V24.752H57.2151V24.5085H57.4586V24.265H57.702V24.0216H58.189V23.7781H58.4324V23.5346H58.6759V23.2912H58.9194V23.0477H59.1628V22.8042H59.6498V23.5346H59.8932V26.4562H60.1367V29.1343H60.3802V32.0559H60.6236V34.9775H60.8671V37.8991H61.1105V40.8207H61.354V43.4988H61.5975V46.4204H61.8409V49.342H62.0844V52.2636H62.3279V54.9417H62.5713V57.8633H62.8148V60.7849H63.0583V63.7064H63.3017V66.3846H63.5452V69.3062H63.7887V70.0365H63.5452V70.7669H63.3017V71.0104H63.0583V71.2539" fill="url(#paint1_linear_15_138)"/>
<path d="M13.3913 71.2539V71.0104H12.9044V70.5235H12.6609V67.8454H12.9044V64.9238H13.1478V62.0022H13.3913V59.0806H13.6348V56.4025H13.8782V53.7244H17.7737V53.4809H21.1822V53.2374H22.3995V52.994H23.6169V52.7505H24.8342V52.507H26.0515V52.2636H27.2688V52.0201H28.2427V51.7766H28.9731V51.5332H29.7035V51.2897H30.4339V51.0462H31.1643V50.8028H31.8947V50.5593H32.6251V50.3158H33.3555V50.0724H34.0859V49.8289H34.5728V49.5854H35.0597V49.342H35.5467V49.0985H36.0336V48.8551H36.5205V48.6116H37.0075V48.3681H37.4944V48.1247H37.9813V47.8812H38.4683V47.6377H38.9552V47.3943H39.4421V47.1508H39.9291V46.9073H40.416V46.6639H40.9029V46.4204H41.1464V46.1769H41.3898V45.9335H41.8768V45.69H42.1202V45.4465H42.6072V45.2031H42.8506V44.9596H43.3376V44.7161H43.581V44.4727H43.8245V44.2292H44.3114V43.9857H44.5549V43.7423H45.0418V43.4988H45.2853V43.2553H45.5288V43.0119H46.0157V42.7684H46.2592V42.5249H46.7461V42.2815H46.9895V42.038H47.233V41.7946H47.4765V41.5511H47.7199V41.3076H47.9634V41.0642H48.2069V40.8207H48.4503V40.5772H48.6938V40.3338H48.9373V40.0903H49.1807V39.8468H49.4242V39.6034H49.6677V39.3599H49.9111V39.1164H50.1546V38.873H50.3981V38.6295H50.6415V38.386H51.1285V38.1426H51.3719V37.8991H51.6154V37.6556H51.8589V37.1687H52.1023V36.9252H52.3458V36.6818H52.5893V36.1948H52.8327V35.9514H53.0762V35.7079H53.3197V35.4645H53.5631V34.9775H53.8066V34.7341H54.0501V34.4906H54.2935V34.2471H54.537V33.7602H54.7804V33.5167H55.0239V33.2733H55.2674V33.0298H55.5108V32.5429H55.7543V32.2994H55.9978V32.0559H56.2412V31.569H56.4847V31.0821H56.7282V30.8386H56.9716V30.3517H57.2151V29.8647H57.4586V29.6213H57.702V29.1343H57.9455V28.8909H58.189V28.4039H58.4324V27.917H58.6759V27.6736H58.9194V27.1866H59.1628V26.6997H59.4063V26.2128H59.6498V25.7258H59.8932V26.4562H60.1367V29.1343H60.3802V32.0559H60.6236V34.9775H60.8671V37.8991H61.1105V40.5772H61.354V43.4988H61.5975V46.4204H61.8409V49.342H62.0844V52.2636H62.3279V54.9417H62.5713V57.8633H62.8148V60.7849H63.0583V63.7064H63.3017V66.3846H63.5452V69.3062H63.7887V70.0365H63.5452V70.7669H63.3017V71.0104H63.0583V71.2539" fill="url(#paint2_linear_15_138)"/>
<path fill-rule="evenodd" clip-rule="evenodd" d="M70.4995 75.7772H5.81274C4.9863 75.7772 4.3082 75.1001 4.3082 74.2727V32.0817C4.3082 31.2544 4.9863 30.5783 5.81274 30.5783H13.5361L13.966 25.5186H5.74425C2.58587 25.5186 0 28.1047 0 31.263V76.1196C0 79.2799 2.58587 81.8639 5.74425 81.8639H32.0006C31.7647 83.6357 31.0752 85.2714 30.0395 86.5126H20.5824C19.6237 86.5126 18.8391 87.2971 18.8391 88.2577C18.8391 89.2154 19.6237 90 20.5824 90H55.7297C56.6885 90 57.4732 89.2154 57.4732 88.2577C57.4732 87.2971 56.6885 86.5126 55.7297 86.5126H46.9564C45.9198 85.2714 45.2303 83.6357 44.9956 81.8639H70.5689C73.7281 81.8639 76.313 79.2799 76.313 76.1196V31.263C76.313 28.1047 73.7281 25.5186 70.5689 25.5186H62.3471L62.7771 30.5783H70.4995C71.3268 30.5783 72.0049 31.2544 72.0049 32.0817V74.2727C72.0049 75.1001 71.3268 75.7772 70.4995 75.7772Z" fill="#100F0D"/>
<path d="M48.6064 21.6582V12.5587C48.6064 9.68656 47.43 7.0732 45.5344 5.17953C41.4432 1.08639 34.8696 1.08639 30.7772 5.17953C28.8818 7.0732 27.7064 9.68656 27.7064 12.5587V21.6582V25.2513C27.7064 25.8322 27.2345 26.305 26.6517 26.305C26.0705 26.305 25.597 25.8322 25.597 25.2513V12.5587C25.597 9.1037 27.011 5.96422 29.286 3.6883C34.2027 -1.22946 42.1088 -1.22946 47.0256 3.6883C49.3005 5.96422 50.7158 9.1037 50.7158 12.5587V25.2513C50.7158 25.8322 50.242 26.305 49.6601 26.305C49.077 26.305 48.6064 25.8322 48.6064 25.2513V21.6582Z" fill="#100F0D"/>
<path d="M21.1822 71.2539V71.0104H22.643V70.7669H23.6169V70.5235H24.3473V70.28H25.3211V70.0365H26.295V69.7931H27.0254V69.5496H27.7558V69.3062H28.4862V69.0627H28.9731V68.8192H29.7035V68.5758H30.4339V68.3323H31.1643V68.0888H31.6512V67.8454H32.1381V67.6019H32.6251V67.3584H33.112V67.115H33.5989V66.8715H34.0859V66.628H34.5728V66.3846H35.0597V66.1411H35.5467V65.8976H36.0336V65.6542H36.5205V65.4107H37.0075V65.1672H37.2509V64.9238H37.7379V64.6803H38.2248V64.4368H38.4683V64.1934H38.9552V63.9499H39.1986V63.7064H39.6856V63.463H39.929V63.2195H40.416V62.976H40.6594V62.7326H40.9029V62.4891H41.3898V62.2457H41.6333V62.0022H41.8768V61.7587H42.3637V61.5153H42.6072V61.2718H42.8506V61.0283H43.0941V60.7849H43.3376V60.5414H43.8245V60.2979H44.068V60.0545H44.3114V59.811H44.5549V59.5675H44.7984V59.3241H45.0418V59.0806H45.2853V58.8371H45.5287V58.5937H45.7722V58.3502H46.0157V58.1067H46.2591V57.8633H46.5026V57.6198H46.7461V57.3763H46.9895V57.1329H47.233V56.8894H47.4765V56.6459H47.7199V56.4025H47.9634V56.159H48.2069V55.9156H48.4503V55.6721H48.6938V55.4286H48.9373V54.9417H49.1807V54.6982H49.4242V54.4548H49.6677V53.9678H49.9111V53.7244H50.1546V53.4809H50.3981V53.2374H50.6415V52.7505H50.885V52.507H51.1285V52.2636H51.3719V51.7766H51.6154V51.5332H51.8589V51.0462H52.1023V50.8028H52.3458V50.3158H52.5892V50.0724H52.8327V49.5854H53.0762V49.0985H53.3196V48.8551H53.5631V48.3681H53.8066V48.1247H54.05V47.6377H54.2935V47.1508H54.537V46.6639H54.7804V46.1769H55.0239V45.69H55.2674V45.2031H55.5108V44.7161H55.7543V44.2292H55.9978V43.7423H56.2412V43.2553H56.4847V42.525H56.7282V41.7946H56.9716V41.3076H57.2151V40.5772H57.4586V39.8468H57.702V39.1164H57.9455V38.6295H58.189V37.6556H58.4324V36.6818H58.6759V35.7079H58.9194V34.7341H59.1628V33.7602H59.4063V32.0559H59.6497V30.5951H59.8932V28.8909H60.1367V29.1343H60.3801V32.0559H60.6236V34.9775H60.8671V37.8991H61.1105V40.8207H61.354V43.4988H61.5975V46.4204H61.8409V49.342H62.0844V52.2636H62.3279V54.9417H62.5713V57.8633H62.8148V60.7849H63.0583V63.7064H63.3017V66.3846H63.5452V69.3062H63.7887V70.0365H63.5452V70.7669H63.3017V71.0104H63.0583V71.2539" fill="url(#paint3_linear_15_138)"/>
<defs>
<linearGradient id="paint0_linear_15_138" x1="38.1561" y1="53.0916" x2="38.1561" y2="14.3998" gradientUnits="userSpaceOnUse">
<stop stop-color="#BA1C2B"/>
<stop offset="1" stop-color="#EF2D4D"/>
</linearGradient>
<linearGradient id="paint1_linear_15_138" x1="38.1561" y1="57.93" x2="38.1561" y2="22.7529" gradientUnits="userSpaceOnUse">
<stop stop-color="#BA1C2B"/>
<stop offset="1" stop-color="#EF2D4D"/>
</linearGradient>
<linearGradient id="paint2_linear_15_138" x1="38.1561" y1="64.8529" x2="38.1561" y2="25.522" gradientUnits="userSpaceOnUse">
<stop stop-color="#BA1C2B"/>
<stop offset="1" stop-color="#EF2D4D"/>
</linearGradient>
<linearGradient id="paint3_linear_15_138" x1="42.4723" y1="73.0387" x2="42.4723" y2="29.037" gradientUnits="userSpaceOnUse">
<stop stop-color="#BA1C2B"/>
<stop offset="1" stop-color="#EF2D4D"/>
</linearGradient>
</defs>
</svg>
