<svg width="37" height="37" viewBox="0 0 37 37" fill="none" xmlns="http://www.w3.org/2000/svg">
<rect width="37" height="37" rx="4" fill="#F0F6F8"/>
<path d="M26.405 15.1875C27.2255 15.1875 28.0124 14.8616 28.5926 14.2814C29.1728 13.7012 29.4988 12.9143 29.4988 12.0938C29.4988 11.2732 29.1728 10.4863 28.5926 9.90614C28.0124 9.32595 27.2255 9 26.405 9C25.5845 9 24.7976 9.32595 24.2174 9.90614C23.6372 10.4863 23.3113 11.2732 23.3113 12.0938C23.3113 12.9143 23.6372 13.7012 24.2174 14.2814C24.7976 14.8616 25.5845 15.1875 26.405 15.1875ZM22.4259 13.5C22.1706 12.7781 22.1169 12.0002 22.2706 11.25H8.12375L7.99213 11.2579C7.7074 11.2917 7.44634 11.4331 7.2623 11.6529C7.07826 11.8728 6.98513 12.1547 7.00194 12.4409C7.01874 12.7272 7.14421 12.9962 7.35271 13.193C7.56122 13.3899 7.83701 13.4997 8.12375 13.5H22.4259ZM28.3738 24.75H8.12375L7.99213 24.7579C7.7074 24.7917 7.44634 24.9331 7.2623 25.1529C7.07826 25.3728 6.98513 25.6547 7.00194 25.9409C7.01874 26.2272 7.14421 26.4962 7.35271 26.693C7.56122 26.8899 7.83701 26.9997 8.12375 27H28.3738L28.5054 26.9921C28.7901 26.9583 29.0512 26.8169 29.2352 26.5971C29.4192 26.3772 29.5124 26.0953 29.4956 25.8091C29.4788 25.5228 29.3533 25.2538 29.1448 25.057C28.9363 24.8601 28.6605 24.7503 28.3738 24.75ZM8.12375 18L28.3738 17.9978C28.6605 17.9981 28.9363 18.1079 29.1448 18.3047C29.3533 18.5015 29.4788 18.7706 29.4956 19.0568C29.5124 19.3431 29.4192 19.6249 29.2352 19.8448C29.0512 20.0647 28.7901 20.206 28.5054 20.2399L28.3738 20.2478L8.12375 20.25C7.83701 20.2497 7.56122 20.1399 7.35271 19.943C7.14421 19.7462 7.01874 19.4772 7.00194 19.1909C6.98513 18.9047 7.07826 18.6228 7.2623 18.4029C7.44634 18.1831 7.7074 18.0417 7.99213 18.0079L8.12375 18Z" fill="#89999F"/>
</svg>
