<svg width="37" height="37" viewBox="0 0 37 37" fill="none" xmlns="http://www.w3.org/2000/svg">
<rect width="37" height="37" rx="4" fill="#F0F6F8"/>
<path fill-rule="evenodd" clip-rule="evenodd" d="M17.2583 10.7386C15.5292 10.7386 13.8708 11.4255 12.6482 12.6482C11.4255 13.8708 10.7386 15.5292 10.7386 17.2583C10.7386 18.9874 11.4255 20.6457 12.6482 21.8684C13.8708 23.0911 15.5292 23.778 17.2583 23.778C18.9874 23.778 20.6457 23.0911 21.8684 21.8684C23.0911 20.6457 23.778 18.9874 23.778 17.2583C23.778 15.5292 23.0911 13.8708 21.8684 12.6482C20.6457 11.4255 18.9874 10.7386 17.2583 10.7386ZM11.4188 11.4188C12.9675 9.87007 15.0681 9 17.2583 9C19.4485 9 21.549 9.87007 23.0978 11.4188C24.6465 12.9675 25.5166 15.0681 25.5166 17.2583C25.5166 19.1554 24.8638 20.9852 23.6827 22.4474L27.0011 25.7717L25.7706 27L22.4539 23.6774C20.9906 24.8619 19.1582 25.5166 17.2583 25.5166C15.0681 25.5166 12.9675 24.6465 11.4188 23.0978C9.87007 21.549 9 19.4485 9 17.2583C9 15.0681 9.87007 12.9675 11.4188 11.4188Z" fill="#89999F"/>
</svg>
